<?xml version="1.0" encoding="UTF-8" standalone="no"?>
<svg
   xmlns="http://www.w3.org/2000/svg"
   xmlns:svg="http://www.w3.org/2000/svg"
   width="26"
   height="26"
   viewBox="0 0 26 26"
   version="1.1"
   id="svg1">
  <defs
     id="defs1">
    <linearGradient
       id="screen1"
       x1="0%"
       y1="0%"
       x2="100%"
       y2="0%">
      <stop
         offset="0%"
         style="stop-color:#00B2FF;stop-opacity:1" />
      <stop
         offset="100%"
         style="stop-color:#00D7FF;stop-opacity:1" />
    </linearGradient>
    <linearGradient
       id="screen2"
       x1="0%"
       y1="0%"
       x2="100%"
       y2="0%">
      <stop
         offset="0%"
         style="stop-color:#87CEFA;stop-opacity:1" />
      <stop
         offset="50%"
         style="stop-color:#00B2FF;stop-opacity:1" />
      <stop
         offset="100%"
         style="stop-color:#87CEFA;stop-opacity:1" />
    </linearGradient>
  </defs>
  
  <!-- 背景圆形 - 半透明 -->
  <circle
     cx="13"
     cy="13"
     r="13"
     fill="#F5F5F5"
     opacity="0" />
  
  <!-- 左侧显示器 -->
  <rect
     x="1.5"
     y="2.5"
     width="13"
     height="9"
     rx="0.8"
     ry="0.8"
     fill="#333333"
     stroke="#000000"
     stroke-width="0.4" />
  
  <!-- 左侧显示器屏幕 -->
  <rect
     x="2"
     y="3"
     width="12"
     height="8"
     rx="0.4"
     ry="0.4"
     fill="url(#screen1)" />
  
  <!-- 左侧显示器底座 -->
  <ellipse
     cx="8"
     cy="11.8"
     rx="0.8"
     ry="0.4"
     fill="#555555" />
  <rect
     x="6.5"
     y="11.5"
     width="3"
     height="2.5"
     fill="#777777" />
  <rect
     x="5"
     y="14"
     width="6"
     height="1"
     rx="0.4"
     ry="0.4"
     fill="#444444" />
  
  <!-- 右侧显示器 -->
  <rect
     x="13"
     y="10"
     width="11.5"
     height="8"
     rx="0.8"
     ry="0.8"
     fill="#333333"
     stroke="#000000"
     stroke-width="0.4" />
  
  <!-- 右侧显示器屏幕 -->
  <rect
     x="13.5"
     y="10.5"
     width="10.5"
     height="7"
     rx="0.4"
     ry="0.4"
     fill="url(#screen2)" />
  
  <!-- 右侧显示器底座 -->
  <ellipse
     cx="18.5"
     cy="18.3"
     rx="0.8"
     ry="0.4"
     fill="#555555" />
  <rect
     x="17"
     y="18"
     width="3"
     height="2.5"
     fill="#777777" />
  <rect
     x="15.5"
     y="20.5"
     width="6"
     height="1"
     rx="0.4"
     ry="0.4"
     fill="#444444" />
  
  <!-- 连接线 - 虚线 -->
  <path
     d="M 14,7 C 15,7 14,13 11.5,13 C 9,13 6.5,18 6.5,18"
     stroke="#333333"
     stroke-width="0.8"
     stroke-dasharray="1.6,0.8"
     fill="none" />
  
  <!-- 左侧屏幕内容 -->
  <!-- 黄色方块与心形 -->
  <rect
     x="3.5"
     y="6"
     width="2.5"
     height="2.5"
     rx="0.4"
     ry="0.4"
     fill="#FFCC00" />
  <path
     d="M 4.8,7 C 5.2,6.5 6,7 4.8,7.8 C 3.6,7 4.4,6.5 4.8,7 Z"
     fill="#FFFFFF" />
  
  <!-- 白色箭头 -->
  <path
     d="M 7,7 L 8,7 L 8,6.5 L 9,7 L 8,7.5 L 8,7 M 9.5,7 L 10.5,7 L 10.5,6.5 L 11.5,7 L 10.5,7.5 L 10.5,7 M 11.5,7 L 12.5,7 L 12.5,6.5 L 13.5,7 L 12.5,7.5 L 12.5,7"
     fill="#FFFFFF" />
  
  <!-- 右侧屏幕内容 -->
  <!-- 左箭头 -->
  <path
     d="M 15.5,14 L 15.5,13 L 14.5,13.5 Z"
     fill="#FFFFFF" />
  
  <!-- 中间矩形 -->
  <rect
     x="16.5"
     y="13"
     width="4"
     height="2.5"
     rx="0.4"
     ry="0.4"
     fill="#FFFFFF" />
  
  <!-- 蓝色矩形内部 -->
  <rect
     x="17.2"
     y="13.4"
     width="1.2"
     height="1.7"
     rx="0.2"
     ry="0.2"
     fill="#00B2FF" />
  
  <!-- 右箭头 -->
  <path
     d="M 21.5,14 L 21.5,13 L 22.5,13.5 Z"
     fill="#FFFFFF" />
</svg>